<svg xmlns="http://www.w3.org/2000/svg" viewBox="0 0 500 500" width="100%" height="100%">
  <defs>
    <linearGradient id="bgQur" x1="0%" y1="0%" x2="100%" y2="100%">
      <stop offset="0%" stop-color="#FFFFFF"/>
      <stop offset="100%" stop-color="#EFF6FF"/>
    </linearGradient>
    <linearGradient id="blueQur" x1="0%" y1="0%" x2="100%" y2="100%">
      <stop offset="0%" stop-color="#0B43BD"/>
      <stop offset="100%" stop-color="#061D52"/>
    </linearGradient>
    <linearGradient id="goldQur" x1="0%" y1="0%" x2="100%" y2="100%">
      <stop offset="0%" stop-color="#FCD34D"/>
      <stop offset="50%" stop-color="#D4AF37"/>
      <stop offset="100%" stop-color="#B45309"/>
    </linearGradient>
    <linearGradient id="cyanQur" x1="0%" y1="0%" x2="100%" y2="100%">
      <stop offset="0%" stop-color="#38BDF8"/>
      <stop offset="100%" stop-color="#0284C7"/>
    </linearGradient>
    <filter id="shQur" x="-20%" y="-20%" width="140%" height="140%">
      <feDropShadow dx="0" dy="8" stdDeviation="10" flood-color="#0B43BD" flood-opacity="0.15"/>
    </filter>
  </defs>
  <rect width="500" height="500" rx="36" fill="url(#bgQur)"/>
  <circle cx="250" cy="220" r="165" fill="none" stroke="url(#goldQur)" stroke-width="3" stroke-dasharray="8 6" opacity="0.6"/>
  <path d="M130 350 L130 200 C130 130 250 80 250 80 C250 80 370 130 370 200 L370 350 Z" fill="none" stroke="url(#goldQur)" stroke-width="2" opacity="0.4"/>
  <g filter="url(#shQur)">
    <path d="M140 340 L360 210 L330 190 L110 320 Z" fill="url(#goldQur)"/>
    <path d="M360 340 L140 210 L170 190 L390 320 Z" fill="#B45309"/>
  </g>
  <g filter="url(#shQur)">
    <path d="M250 200 C200 190 150 170 110 160 L120 280 C160 290 210 310 250 320 Z" fill="url(#blueQur)"/>
    <path d="M245 205 C200 195 155 175 120 168 L128 275 C165 285 208 305 245 315 Z" fill="#FFFFFF"/>
    <path d="M235 215 C200 207 165 190 135 183 L141 265 C170 273 205 290 235 298 Z" fill="none" stroke="url(#goldQur)" stroke-width="1.5"/>
    <path d="M250 200 C300 190 350 170 390 160 L380 280 C340 290 290 310 250 320 Z" fill="url(#blueQur)"/>
    <path d="M255 205 C300 195 345 175 380 168 L372 275 C335 285 292 305 255 315 Z" fill="#FFFFFF"/>
    <path d="M265 215 C300 207 335 190 365 183 L359 265 C330 273 295 290 265 298 Z" fill="none" stroke="url(#goldQur)" stroke-width="1.5"/>
  </g>
  <g transform="translate(250, 110)" filter="url(#shQur)">
    <path d="M0 -25 A25 25 0 0 0 20 20 A20 20 0 0 1 -10 -22 A24 24 0 0 1 0 -25" fill="url(#goldQur)"/>
    <polygon points="20,-15 22,-9 28,-9 23,-5 25,1 20,-3 15,1 17,-5 12,-9 18,-9" fill="url(#goldQur)"/>
  </g>
  <g transform="translate(250, 440)">
    <path d="M-150 -18 L150 -18 L135 18 L-135 18 Z" fill="url(#blueQur)" filter="url(#shQur)"/>
    <rect x="-130" y="-14" width="260" height="28" rx="6" fill="none" stroke="url(#goldQur)" stroke-width="1.5"/>
    <text x="0" y="5" fill="#FFFFFF" font-family="sans-serif" font-size="13" font-weight="800" letter-spacing="2" text-anchor="middle">THE HOLY QUR'AN</text>
  </g>
</svg>